# xmcd
#
# Track frame offsets:
#	150
#	12494
#	23900
#	37964
#	51036
#	65663
#	77596
#	87497
#	99004
#	108786
#	121204
#	133144
#	143979
#	158486
#	173055
#	185830
#	199577
#	212792
#	224312
#	238478
#	253782
#	265644
#	279408
#	291775
#	305763
#
# Disc length: 4254 seconds
#
# Revision: 0
# Processed by: cddbd v1.5.2PL0 Copyright (c) Steve Scherf et al.
# Submitted via: audiograbber 1.83.01
#
DISCID=6b109c19
DTITLE=Various Artist - History Of Rhythm And Blues 1942-1952 [CD4]
DYEAR=2009
DGENRE=Blues
TTITLE0=Ella Fitzgerald and Louis Jordan - Stone Cold Dead In The Market
TTITLE1=Edgar Hayes - Fat Meat 'n' Greens
TTITLE2=Dave Bartholomew - Country Boy
TTITLE3=Professor Longhair - Mardi Gras In New Orleans
TTITLE4=Clarence Garlow - Bon Ton Roula
TTITLE5=Fats Domino - The Fat Man
TTITLE6=Archibald - Stack-A-Lee
TTITLE7=Lloyd Price - Lawdy Miss Clawdy
TTITLE8=Fats Domino - Goin' Home
TTITLE9=Johnny Otis - Mambo Boogie
TTITLE10=B.B.King - Don't You Need A Man Like Me
TTITLE11=Lloyd Glenn - Chica Boo
TTITLE12=The Clovers - Don't You Know I Love You So
TTITLE13=Ruth Brown - 5-10-15 Hours
TTITLE14=Billy Wright - Hey Little Girl
TTITLE15=Little Esther Philips - Mistrustin' Blues
TTITLE16=Percy Mayfield - Please Send Me Someone To Love
TTITLE17=Lowell Fulson - Everyday I Have The Blues
TTITLE18=Jimmy Nelson - T-99 Blues
TTITLE19=Big Joe Turner - Chains Of Love
TTITLE20=The Five Keys - Too Late Baby
TTITLE21=The Dominoes - Do Something For Me
TTITLE22=The Royales - Give Me One More Chance
TTITLE23=Ray Charles - Misery In My Heart
TTITLE24=Mary Deloatch - The Lords Gospel Train
EXTD=
EXTT0=
EXTT1=
EXTT2=
EXTT3=
EXTT4=
EXTT5=
EXTT6=
EXTT7=
EXTT8=
EXTT9=
EXTT10=
EXTT11=
EXTT12=
EXTT13=
EXTT14=
EXTT15=
EXTT16=
EXTT17=
EXTT18=
EXTT19=
EXTT20=
EXTT21=
EXTT22=
EXTT23=
EXTT24=
PLAYORDER=
